<svg xmlns="http://www.w3.org/2000/svg" width="95" height="51" viewBox="0 0 95 51" fill="none">
  <path d="M0 10.675L0 7.17272C0 4.11015 2.48271 1.62744 5.54528 1.62744L19.3208 1.62744C21.9626 1.62744 24.0423 3.88162 23.83 6.51486C23.6405 8.86464 21.6782 10.675 19.3208 10.675H12.4769C11.2277 10.675 10.215 11.6877 10.215 12.9369C10.215 14.1861 11.2277 15.1988 12.4769 15.1988H19.45C21.7756 15.1988 23.752 16.8983 24.1003 19.1976L24.1258 19.3653C24.1908 19.7948 24.1805 20.2323 24.0954 20.6582C23.746 22.4051 22.2121 23.6626 20.4305 23.6626H17.2195H13.8267C11.832 23.6626 10.215 25.2796 10.215 27.2743V31.9076V38.7197C10.215 40.2647 9.48755 41.7196 8.25152 42.6466C6.62209 43.8687 4.40724 43.9575 2.68515 42.8699L2.46419 42.7304C0.930184 41.7615 0 40.0739 0 38.2595L0 10.675Z" fill="white"/>
  <path d="M28.0176 35.6284V10.6465C28.0176 9.1993 28.6495 7.82421 29.7476 6.88162C31.6065 5.28606 34.3517 5.28606 36.2107 6.88162C37.3088 7.82421 37.9407 9.19929 37.9407 10.6465V35.6284C37.9407 38.3686 35.7193 40.59 32.9791 40.59C30.2389 40.59 28.0176 38.3686 28.0176 35.6284Z" fill="white"/>
  <path d="M68.5647 9.61166L69.0929 8.50495C70.1919 6.20192 72.0305 4.33321 74.3153 3.19682L74.5905 3.05994C75.5291 2.59314 76.5234 2.24809 77.5493 2.03314L78.224 1.89179C80.4383 1.42787 82.721 1.39296 84.9484 1.78895L87.5013 2.2428C87.9282 2.31869 88.3471 2.43406 88.7526 2.58742L90.8254 3.37127C93.1629 4.25528 94.3934 6.82 93.6202 9.1965C92.8345 11.611 90.2669 12.9585 87.8336 12.2335L82.9129 10.7672C82.0687 10.5157 81.1584 10.6188 80.3919 11.0527C78.3392 12.2149 78.1771 15.1111 80.0874 16.495L81.7222 17.6794L86.8297 20.7439L88.0281 21.4036C90.7203 22.8858 92.7736 25.306 93.7972 28.2037L94.1603 29.2315C94.71 30.7875 94.8084 32.4672 94.4442 34.0768C94.2335 35.0077 93.872 35.8979 93.3738 36.7121L92.2079 38.6177C90.1055 41.5934 86.689 43.3627 83.0455 43.3627H81.5916L77.4903 42.779L73.2583 41.7575L69.4642 40.2983L68.7126 39.9376C67.057 39.1432 66.0654 37.4075 66.2218 35.5778C66.4628 32.7594 69.2534 30.8902 71.9514 31.74L79.462 34.1057C80.8162 34.5323 82.2883 34.3575 83.505 33.6257L83.774 33.4639C83.9619 33.3509 84.1344 33.2141 84.2871 33.0568C85.1085 32.211 85.2401 30.9112 84.6047 29.9179L84.4671 29.7029C84.1984 29.2828 83.8246 28.9402 83.3827 28.709L81.5916 27.7719L77.3698 25.5562C75.0366 24.3317 72.9403 22.7013 71.1792 20.7413L69.9786 19.4052C69.4435 18.8097 68.9911 18.1448 68.6337 17.4285C67.408 14.9725 67.3826 12.0888 68.5647 9.61166Z" fill="white"/>
  <path d="M61.8263 7.31368L61.9047 7.38176C63.3231 8.61453 64.1617 10.3716 64.2222 12.2375C64.3037 14.7543 62.963 17.11 60.7418 18.3526L57.3706 20.2386C56.0047 21.0027 54.4493 21.3728 52.8819 21.3067L52.5289 21.2918C50.4752 21.2051 48.5478 20.2946 47.1928 18.7709L47.1167 18.6854C46.0846 17.5247 45.4647 16.0628 45.3512 14.5214L45.3368 14.3265C45.2563 13.2335 45.4634 12.138 45.938 11.1463C46.6582 9.6416 47.9464 8.4742 49.5266 7.89429L54.6649 6.00858C57.1157 5.10917 59.8666 5.61051 61.8263 7.31368Z" fill="white"/>
  <path d="M57.8255 10.6668L57.8636 10.6999C58.5529 11.299 58.9604 12.1529 58.9898 13.0596C59.0294 14.2827 58.3779 15.4275 57.2985 16.0313L55.6602 16.9479C54.9964 17.3192 54.2405 17.4991 53.4788 17.4669L53.3073 17.4597C52.3092 17.4176 51.3726 16.975 50.7141 16.2346L50.6772 16.193C50.1756 15.629 49.8743 14.9186 49.8192 14.1695L49.8122 14.0748C49.7731 13.5436 49.8737 13.0113 50.1043 12.5293C50.4543 11.7981 51.0803 11.2308 51.8482 10.949L54.3453 10.0326C55.5363 9.5955 56.8732 9.83913 57.8255 10.6668Z" fill="#C6C6C6" stroke="#929292"/>
  <path d="M63.5999 32.5315L63.6146 32.613C63.9465 34.4606 63.4888 36.362 62.3502 37.8647C60.8256 39.8769 58.3004 40.8918 55.788 40.502L51.921 39.902C50.3784 39.6627 48.935 39.0003 47.7549 37.9903L47.4781 37.7534C45.929 36.4276 44.998 34.5321 44.9022 32.5088L44.8974 32.4086C44.8241 30.8604 45.2654 29.3308 46.154 28.053L46.2591 27.9019C46.8902 26.9944 47.7474 26.2629 48.7479 25.778C50.2624 25.044 52.0067 24.9222 53.61 25.4387L58.8416 27.1237C61.3161 27.9207 63.145 29.9992 63.5999 32.5315Z" fill="white"/>
  <path d="M58.5731 32.9011L58.5803 32.9407C58.7416 33.8386 58.5191 34.7626 57.9658 35.4928C57.2249 36.4707 55.9977 36.9639 54.7768 36.7745L52.8976 36.4829C52.1479 36.3666 51.4465 36.0447 50.873 35.5539L50.7385 35.4388C49.9857 34.7945 49.5333 33.8733 49.4867 32.8901L49.4844 32.8414C49.4488 32.089 49.6632 31.3457 50.095 30.7247L50.1461 30.6513C50.4528 30.2103 50.8694 29.8548 51.3556 29.6192C52.0916 29.2624 52.9392 29.2033 53.7184 29.4542L56.2607 30.2731C57.4633 30.6604 58.352 31.6705 58.5731 32.9011Z" fill="#C6C6C6" stroke="#929292"/>
  <path d="M46.2544 29.2972L48.4971 29.9057C48.843 29.9996 49.1982 29.7901 49.2835 29.442C49.3568 29.1429 49.2059 28.834 48.9248 28.708L47.4516 28.0479C47.1566 27.9157 46.8891 27.7291 46.6631 27.4979L46.3791 27.2073C46.1536 26.9766 45.9524 26.7233 45.7786 26.4514L45.3923 25.8471C45.1519 25.471 44.9639 25.0639 44.8335 24.637C44.5744 23.7892 44.5494 22.8872 44.7614 22.0265L44.8323 21.7383C44.9635 21.2054 45.1682 20.6921 45.4393 20.215C45.835 19.5184 46.3682 18.9071 47.0051 18.4211L48.7838 17.098C48.9448 16.9782 49.0391 16.789 49.0377 16.5883C49.0349 16.1628 48.6197 15.8623 48.2146 15.9926L45.9408 16.7241C45.4843 16.871 45.0828 17.1522 44.7888 17.5309L44.3108 18.1464C44.1688 18.3293 44.0399 18.522 43.9251 18.7232L43.1581 20.067L43.0051 20.4087C42.175 22.2628 42.2312 24.3936 43.1581 26.2017L44.0975 27.5483L44.8028 28.3766C45.1828 28.8228 45.6888 29.1437 46.2544 29.2972Z" fill="white"/>
</svg>