<svg xmlns="http://www.w3.org/2000/svg" width="144" height="144" viewBox="0 0 144 144" fill="none">
  <path d="M122.912 21.0883C109.409 7.58569 91.0956 0 72 0C52.9044 0 34.5909 7.58569 21.0883 21.0883C7.58569 34.5909 0 52.9044 0 72C0 91.0956 7.58569 109.409 21.0883 122.912C34.5909 136.414 52.9044 144 72 144C91.0956 144 109.409 136.414 122.912 122.912C136.414 109.409 144 91.0956 144 72C144 52.9044 136.414 34.5909 122.912 21.0883ZM72 134.35C37.621 134.35 9.65036 106.38 9.65036 72C9.65036 37.6204 37.6204 9.65036 72 9.65036C106.38 9.65036 134.35 37.6204 134.35 72C134.35 106.38 106.38 134.35 72 134.35Z" fill="#BF73FF"/>
  <path d="M61.1495 87.096L39.0103 64.9571L32.1867 71.7808L61.1495 100.744L111.663 50.2309L104.839 43.4072L61.1495 87.096Z" fill="#BF73FF"/>
</svg>